<svg width="20" height="20" viewBox="0 0 20 20" fill="none" xmlns="http://www.w3.org/2000/svg">
<g clip-path="url(#clip0_3114_1028)">
<path d="M18.0381 12.7198C18.0798 12.7909 18.107 12.8695 18.1182 12.9512C18.1293 13.0328 18.1242 13.1159 18.1032 13.1956C18.0821 13.2753 18.0455 13.35 17.9954 13.4155C17.9454 13.481 17.8828 13.5359 17.8114 13.5771C17.7401 13.6183 17.6612 13.645 17.5795 13.6556C17.4978 13.6663 17.4147 13.6606 17.3352 13.639C17.2556 13.6174 17.1812 13.5803 17.116 13.5298C17.0509 13.4793 16.9964 13.4164 16.9556 13.3448L15.5195 10.8573C14.6734 11.424 13.7429 11.8532 12.7626 12.129L13.2168 14.7044C13.2455 14.8677 13.2083 15.0357 13.1132 15.1715C13.0181 15.3072 12.873 15.3997 12.7098 15.4285C12.6737 15.4348 12.6371 15.438 12.6005 15.438C12.4537 15.4378 12.3116 15.386 12.1992 15.2915C12.0868 15.1971 12.0112 15.0662 11.9857 14.9216L11.539 12.3882C10.5161 12.5376 9.47686 12.5372 8.45406 12.3871L8.00734 14.9205C7.98184 15.065 7.90626 15.1961 7.79386 15.2905C7.68146 15.385 7.5394 15.4369 7.39257 15.4371C7.35596 15.4371 7.31942 15.4339 7.28335 15.4276C7.1201 15.3988 6.97498 15.3063 6.87989 15.1705C6.78481 15.0347 6.74755 14.8668 6.77632 14.7035L7.23054 12.1271C6.25141 11.8508 5.32211 11.4215 4.47703 10.8551L3.03249 13.3571C2.99202 13.4292 2.93762 13.4926 2.87245 13.5436C2.80729 13.5946 2.73266 13.6321 2.65288 13.654C2.57311 13.6759 2.48978 13.6817 2.40773 13.6712C2.32568 13.6606 2.24654 13.6339 2.1749 13.5925C2.10326 13.5512 2.04055 13.496 1.99039 13.4302C1.94024 13.3644 1.90364 13.2893 1.88273 13.2093C1.86182 13.1292 1.857 13.0458 1.86856 12.9639C1.88012 12.882 1.90783 12.8032 1.95007 12.7321L3.47328 10.0938C2.942 9.63659 2.45347 9.13192 2.01374 8.58608C1.96145 8.52232 1.92228 8.44883 1.89852 8.36986C1.87475 8.2909 1.86684 8.20801 1.87525 8.12597C1.88367 8.04393 1.90823 7.96437 1.94753 7.89187C1.98684 7.81937 2.0401 7.75536 2.10425 7.70354C2.1684 7.65172 2.24217 7.61311 2.32131 7.58993C2.40046 7.56675 2.48341 7.55946 2.56538 7.56848C2.64735 7.5775 2.72673 7.60266 2.79893 7.6425C2.87114 7.68234 2.93474 7.73608 2.98609 7.80061C3.47414 8.40794 4.03114 8.95649 4.64585 9.43522C4.65077 9.43866 4.65523 9.44256 4.65999 9.44616C6.18538 10.6329 8.06742 11.2687 9.99999 11.25C11.9321 11.2686 13.8136 10.6332 15.3388 9.44694C15.343 9.44381 15.3468 9.44061 15.351 9.43756C15.9669 8.95828 16.5249 8.40893 17.0138 7.80061C17.1184 7.67307 17.2692 7.59205 17.4333 7.57522C17.5974 7.55839 17.7615 7.60712 17.8898 7.71078C18.0181 7.81443 18.1003 7.96461 18.1183 8.12858C18.1364 8.29254 18.0889 8.45699 17.9862 8.58608C17.5456 9.13298 17.056 9.63854 16.5235 10.0965L18.0381 12.7198Z" fill="#9D3FE7"/>
</g>
<defs>
<clipPath id="clip0_3114_1028">
<rect width="20" height="20" fill="white"/>
</clipPath>
</defs>
</svg>
